<svg id="golden-circle" xmlns="http://www.w3.org/2000/svg" xmlns:xlink="http://www.w3.org/1999/xlink" width="35" height="34" viewBox="0 0 35 34"><defs><path id="6v87a" d="M1047 115V81h35v34zm2-17c0 8.284 6.787 15 15.159 15 8.371 0 15.158-6.716 15.158-15 0-8.285-6.787-15-15.158-15-8.372 0-15.16 6.715-15.16 15z"/><path id="6v87b" d="M1064.159 83c8.371 0 15.158 6.715 15.158 15 0 8.284-6.787 15-15.158 15-8.372 0-15.16-6.716-15.16-15 0-8.285 6.788-15 15.16-15z"/><clipPath id="6v87c"><use fill="#fff" xlink:href="#6v87a"/></clipPath></defs><g><g transform="translate(-1047 -81)"><use fill="#e0e0e0" xlink:href="#6v87b"/><use fill="#fff" fill-opacity="0" stroke="#d9bf8f" stroke-linecap="round" stroke-linejoin="round" stroke-miterlimit="50" stroke-width="4" clip-path="url(&quot;#6v87c&quot;)" xlink:href="#6v87b"/></g></g></svg>