<svg id="phone" xmlns="http://www.w3.org/2000/svg"  fill="#393939" width="220px" height="220px" viewBox="0 0 50 64"><path d="M50.29 44.29q0 .96-.36 2.51t-.75 2.45q-.75 1.79-4.36 3.79-3.35 1.82-6.64 1.82-.96 0-1.9-.13t-2.05-.44-1.68-.52-1.98-.73-1.75-.65q-3.5-1.25-6.25-2.96-4.54-2.82-9.43-7.71t-7.71-9.43q-1.72-2.75-2.97-6.25-.1-.32-.64-1.75T1.1 22.3t-.52-1.67-.45-2.06-.12-1.9q0-3.28 1.82-6.63 2-3.61 3.79-4.36.89-.4 2.44-.75t2.52-.36q.5 0 .75.1.64.22 1.9 2.72.39.68 1.06 1.93t1.25 2.27 1.11 1.91l.63.9q.53.75.76 1.26t.25 1.02q0 .71-1.01 1.79t-2.22 1.96-2.21 1.9-1.02 1.64q0 .32.18.8t.3.73.5.86.41.68q2.72 4.89 6.22 8.39t8.4 6.21l.67.41q.61.38.86.5t.73.3.8.19q.65 0 1.65-1.02t1.89-2.21 1.96-2.22 1.79-1.02q.5 0 1.02.25t1.27.77.89.63q.9.53 1.91 1.1t2.27 1.25 1.93 1.08q2.5 1.25 2.71 1.89.1.25.1.75z"/></svg>